<svg xmlns="http://www.w3.org/2000/svg" viewBox="0 0 384.51 327.04"><defs><style>.cls-1{isolation:isolate;}.cls-2{fill:#9cb5c8;mix-blend-mode:multiply;}.cls-3{fill:#fff;}.cls-4{fill:#2d2e5c;}.cls-5{fill:#214a95;}.cls-6{opacity:0.83;}.cls-7{fill:#5d7fbb;}.cls-8{fill:#3f69ad;}.cls-10,.cls-9{mix-blend-mode:screen;}.cls-10{opacity:0.37;}</style></defs><title>3dviewericon</title><g class="cls-1"><g id="Layer_2" data-name="Layer 2"><g id="Capa_1" data-name="Capa 1"><path class="cls-2" d="M32.32,327a22.56,22.56,0,0,0,22.54-22.43l43.8-28.45,98.69,50.68,99.37-51,42.67,28a22.57,22.57,0,1,0,34.94-19A22.61,22.61,0,0,0,353,283l-43.3-28.41V151.83l-99.92-51.32V51.83a22.57,22.57,0,1,0-24.88,0v48.68L85,151.83V255.07L41.25,283.72A22.58,22.58,0,1,0,32.32,327Z"/><path class="cls-3" d="M22.58,316.6A22.47,22.47,0,0,0,35,312.89a22.71,22.71,0,0,0,10.17-18.72l43.8-28.45,98.69,50.68,99.37-51,42.67,28a22.71,22.71,0,0,0,10.18,18.79,22.56,22.56,0,1,0,3.45-39.62L300,244.14V141.38L200.05,90.07V41.39a22.58,22.58,0,1,0-24.88,0V90.07L75.25,141.38V244.63L31.51,273.28a22.58,22.58,0,1,0-8.93,43.31Z"/><polygon class="cls-4" points="187.61 94.63 184.91 96.02 184.91 29.11 190.31 29.11 190.31 96.02 187.61 94.63"/><circle class="cls-5" cx="187.61" cy="22.57" r="12.83"/><rect class="cls-4" x="314.95" y="235.83" width="5.4" height="69.59" transform="translate(-82.86 387.8) rotate(-56.74)"/><path class="cls-5" d="M345.17,304a12.83,12.83,0,1,1,17.77-3.69A12.83,12.83,0,0,1,345.17,304Z"/><polygon class="cls-4" points="88.35 254.48 85.67 249.44 26.55 288.18 29.51 292.7 88.35 254.48"/><circle class="cls-5" cx="22.57" cy="294.02" r="12.84" transform="translate(-157.58 60.56) rotate(-33.27)"/><g class="cls-6"><polygon class="cls-7" points="290.23 147.33 187.61 200.04 84.99 147.33 187.61 94.63 290.23 147.33"/></g><polygon class="cls-8" points="290.23 252.75 187.61 305.45 84.99 252.75 84.99 147.33 187.61 200.04 290.23 147.33 290.23 252.75"/><g class="cls-9"><polygon class="cls-7" points="290.23 252.75 187.61 305.45 187.61 200.04 290.23 147.33 290.23 252.75"/></g><g class="cls-10"><polygon class="cls-7" points="290.23 252.75 187.61 305.45 84.99 252.75 187.61 200.04 290.23 252.75"/></g></g></g></g></svg>