<svg xmlns="http://www.w3.org/2000/svg" viewBox="0 0 401.93 393.47"><defs><style>.cls-1{fill:#99e28f;}.cls-2{fill:#93ce89;}.cls-3{fill:#72ba81;}.cls-4{fill:#4d4d4d;}.cls-5{fill:#fff;}.cls-6{fill:#ccc;}</style></defs><title>landingicon</title><g id="Layer_2" data-name="Layer 2"><g id="OBJECTS"><g id="_Group_" data-name="&lt;Group&gt;"><path id="_Compound_Path_" data-name="&lt;Compound Path&gt;" class="cls-1" d="M232.82,196.11l-1.23,58.28,34.66-12.58,9,21.26,4.25-32-29.32,1.17a23.46,23.46,0,0,0-12.94-34.7Zm0,0"/><g id="_Group_2" data-name="&lt;Group&gt;"><path id="_Compound_Path_2" data-name="&lt;Compound Path&gt;" class="cls-2" d="M172.8,205l49.06,7.26,39.39,74.82a11.4,11.4,0,0,1,.38,9.83l-23.26,53.73A11.27,11.27,0,0,0,248,366.36a15.8,15.8,0,0,1,12.49,7.58l5.46,9-43.47,7.28L205.92,351.4l7.11-49-49.52-26.88s-8.24-32.39,9.3-70.49Zm0,0"/><path id="_Compound_Path_3" data-name="&lt;Compound Path&gt;" class="cls-1" d="M395.54,163.62,376,156.8l-22.2,30.53C312.22,185.94,265,161,265,161q-1.19,2.45-2.22,4.94C244,210.84,259.49,265,259.49,265,251.16,290,222,323.3,222,323.3,141.54,352.45,0,344.12,0,344.12H0c63.82-26.39,120.7-129,120.7-129C167.91,80.47,226.18,0,226.18,0,341.36,22.2,399.64,65.21,399.64,65.21c6.93,52.73-4.09,98.4-4.09,98.4Zm0,0"/></g><path id="_Compound_Path_4" data-name="&lt;Compound Path&gt;" class="cls-3" d="M259.49,265C251.16,290,222,323.3,222,323.3,141.54,352.45,0,344.12,0,344.12H0c2.81-1,182.17-63.85,193.67-73.17,29.69-25.87,38.65-114.22,38.65-114.22l30.47,9.17C244,210.84,259.49,265,259.49,265Zm0,0"/><path id="_Compound_Path_5" data-name="&lt;Compound Path&gt;" class="cls-3" d="M151.26,202.59s-24,16.58-30,72.51l23.16,16.67,13.18-5.08Zm0,0"/><path id="_Compound_Path_6" data-name="&lt;Compound Path&gt;" class="cls-1" d="M151.26,202.59l47.17,15.26,26.5,80.3a11.41,11.41,0,0,1-1.26,9.76l-31.82,49.15a11.28,11.28,0,0,0,6.88,17.1,15.8,15.8,0,0,1,11.06,9.54l3.89,9.78H169.62l-9.89-41,15.11-47.18-44.41-34.69s-2.77-33.3,20.82-68Zm0,0"/><path id="_Compound_Path_7" data-name="&lt;Compound Path&gt;" class="cls-3" d="M376,156.8,280.3,112.39l-18,11.1L282,119.8s61.82,24.92,87.38,46.12Zm0,0"/><path id="_Compound_Path_8" data-name="&lt;Compound Path&gt;" class="cls-3" d="M265,161l-38.85-22.2L222,69.38l-1.9,80.83s23.94,13.29,41,19.94Zm0,0"/><path id="_Compound_Path_9" data-name="&lt;Compound Path&gt;" class="cls-1" d="M205.64,185.58l30.62,49.6,22.26-29.39,19.07,13-13.83-29.22-24,16.9a23.46,23.46,0,0,0-29.72-22.11Zm0,0"/><path id="_Compound_Path_10" data-name="&lt;Compound Path&gt;" class="cls-4" d="M283.66,40a30.91,30.91,0,0,1,18.46,8.69l-2.71,5.43s-11.94.54-19.55-1.09c0,0-1.63-10.31,3.8-13Zm0,0"/><path id="_Compound_Path_11" data-name="&lt;Compound Path&gt;" class="cls-5" d="M351.49,145.41a30.17,30.17,0,0,1-1.29,3.32,77,77,0,0,1-7.9,12.88c-3.68-5.89-3.22-13.59-2.55-17.93a32.09,32.09,0,0,1,.7-3.39Zm0,0"/><path id="_Compound_Path_12" data-name="&lt;Compound Path&gt;" class="cls-5" d="M336,138.25l-2,2.66-5.84,7.67c-1-2.1-1-7.4-.9-10.93.07-2,.19-3.38.19-3.38Zm0,0"/><path id="_Compound_Path_13" data-name="&lt;Compound Path&gt;" class="cls-5" d="M368.62,152.91,366,156.37l-5.22,6.86c-.95-1.89-1-6.4-.94-9.85.07-2.51.23-4.45.23-4.45Zm0,0"/><path id="_Compound_Path_14" data-name="&lt;Compound Path&gt;" class="cls-6" d="M327.47,134.27l8.57,4-2,2.66-6.74-3.26c.07-2,.19-3.38.19-3.38Zm0,0"/><path id="_Compound_Path_15" data-name="&lt;Compound Path&gt;" class="cls-6" d="M340.44,140.29l11,5.12a30.17,30.17,0,0,1-1.29,3.32l-10.45-5a32.09,32.09,0,0,1,.7-3.39Zm0,0"/><path id="_Compound_Path_16" data-name="&lt;Compound Path&gt;" class="cls-6" d="M368.62,152.91,366,156.37l-6.16-3c.07-2.51.23-4.45.23-4.45Zm0,0"/><path id="_Compound_Path_17" data-name="&lt;Compound Path&gt;" class="cls-3" d="M250.53,38.89a9.77,9.77,0,1,1-9.77-9.77,9.77,9.77,0,0,1,9.77,9.77Zm0,0"/><path id="_Compound_Path_18" data-name="&lt;Compound Path&gt;" class="cls-3" d="M232.07,21.87a5.43,5.43,0,1,1-5.43-5.43,5.43,5.43,0,0,1,5.43,5.43Zm0,0"/><path id="_Compound_Path_19" data-name="&lt;Compound Path&gt;" class="cls-3" d="M258.86,52.11a2.71,2.71,0,1,1-2.71-2.71,2.72,2.72,0,0,1,2.71,2.71Zm0,0"/><path id="_Compound_Path_20" data-name="&lt;Compound Path&gt;" class="cls-3" d="M202.39,67.13a2.71,2.71,0,1,1-2.71-2.72,2.72,2.72,0,0,1,2.71,2.72Zm0,0"/><path id="_Compound_Path_21" data-name="&lt;Compound Path&gt;" class="cls-3" d="M221.75,42.87A2.72,2.72,0,1,1,219,40.16a2.71,2.71,0,0,1,2.71,2.71Zm0,0"/><path id="_Compound_Path_22" data-name="&lt;Compound Path&gt;" class="cls-3" d="M230.18,56.08a5,5,0,1,1-5-5,5,5,0,0,1,5,5Zm0,0"/><path id="_Compound_Path_23" data-name="&lt;Compound Path&gt;" class="cls-3" d="M205.64,185.58l12.7,39.87,3.52-13.19Zm0,0"/></g></g></g></svg>