<svg xmlns="http://www.w3.org/2000/svg" viewBox="0 0 414.87 165.03"><defs><style>.cls-1{isolation:isolate;}.cls-2{fill:#9cb5c8;mix-blend-mode:multiply;}.cls-3{fill:#fff;}.cls-4{fill:#d1eaec;}.cls-5{fill:#acdae8;}.cls-6{fill:#5d7fbb;}.cls-7{fill:#4e6cae;}.cls-8{fill:#819ca8;}.cls-9{fill:#718a94;}</style></defs><title>mixedrealityicon</title><g class="cls-1"><g id="Layer_2" data-name="Layer 2"><g id="Capa_1" data-name="Capa 1"><path class="cls-2" d="M414.6,62.61c-.11-.68-.26-1.35-.44-2l-.13-.49a20.29,20.29,0,0,0-.91-2.42l-.17-.37a20.4,20.4,0,0,0-1.06-2l-.21-.34a20.25,20.25,0,0,0-3.41-4l-.3-.26A20,20,0,0,0,403.91,48l-.85-.49-.44-.11a19.84,19.84,0,0,0-7.87-1.61h-18.8V35.67A25.91,25.91,0,0,0,350.06,9.8H74A25.91,25.91,0,0,0,48.07,35.67V45.75H29.27A20.15,20.15,0,0,0,9.14,65.88v43.06a20,20,0,0,0,.86,5.79l.4,1.19,0,.07.23.59a20.12,20.12,0,0,0,2.64,4.59l.18.22a19.79,19.79,0,0,0,4,3.81l.28.2a20.51,20.51,0,0,0,2.38,1.44l.39.2a21.72,21.72,0,0,0,2.21.92l.46.16a19,19,0,0,0,2.51.61l.78.13a20,20,0,0,0,2.82.21h18.8v10.08A25.91,25.91,0,0,0,74,165h276.1a25.91,25.91,0,0,0,25.88-25.88V129.07h18.8a20.16,20.16,0,0,0,20.13-20.13V65.88a20,20,0,0,0-.18-2.59C414.67,63.05,414.63,62.83,414.6,62.61Z"/><path class="cls-3" d="M405.46,52.81c-.11-.68-.26-1.35-.44-2l-.13-.48a19.4,19.4,0,0,0-.91-2.43c-.07-.16-.14-.31-.17-.37a20.47,20.47,0,0,0-1.06-2l-.21-.34a20.42,20.42,0,0,0-3.41-4l-.3-.26a20.25,20.25,0,0,0-4.06-2.75l-.85-.49-.44-.12A19.9,19.9,0,0,0,385.6,36H366.8V25.88A25.91,25.91,0,0,0,340.92,0H64.82A25.91,25.91,0,0,0,38.94,25.88V36H20.13A20.16,20.16,0,0,0,0,56.09V99.14a19.88,19.88,0,0,0,.86,5.79l.4,1.19,0,.07.23.59a20.1,20.1,0,0,0,2.64,4.59l.17.23a20,20,0,0,0,4,3.81l.28.2a20.29,20.29,0,0,0,2.38,1.44l.39.2a20.76,20.76,0,0,0,2.21.92l.47.15a19.66,19.66,0,0,0,2.51.62l.78.12a19.51,19.51,0,0,0,2.83.21H38.94v10.08a25.91,25.91,0,0,0,25.88,25.88h276.1a25.91,25.91,0,0,0,25.88-25.88V119.28h18.8a20.15,20.15,0,0,0,20.13-20.13V56.09a20.13,20.13,0,0,0-.18-2.6C405.53,53.25,405.49,53,405.46,52.81Z"/><rect class="cls-4" x="48.07" y="9.14" width="309.59" height="136.96" rx="16.74" ry="16.74"/><path class="cls-5" d="M340.92,9.14h-5.24V107c0,9.25-7.5,22.24-16.74,22.24H48.07v.13A16.74,16.74,0,0,0,64.82,146.1h276.1a16.74,16.74,0,0,0,16.74-16.74V25.88A16.74,16.74,0,0,0,340.92,9.14Z"/><path class="cls-6" d="M327.5,20.29H78.23A15.11,15.11,0,0,0,63.12,35.41V102c0,15.18,12.31,33,27.49,33h55a27.46,27.46,0,0,0,6.58-.83c21.17-1.91,29.76-13.41,36.64-30.91,0,0,3.73-14.17,14-14.17s14,14.17,14,14.17c6.88,17.51,15.48,29,36.64,30.91a27.44,27.44,0,0,0,6.58.83h55c15.18,0,27.48-17.8,27.48-33V35.41A15.11,15.11,0,0,0,327.5,20.29Z"/><path class="cls-7" d="M315.14,112.57h-55a27.44,27.44,0,0,1-6.58-.83c-21.16-1.91-29.76-7.92-36.64-25.42,0,0-3.73-14.16-14-14.16s-14,14.16-14,14.16c-6.88,17.51-15.47,23.51-36.64,25.42a27.46,27.46,0,0,1-6.58.83h-55A27.49,27.49,0,0,1,63.12,85.09V102c0,15.18,12.31,33,27.49,33h55a27.46,27.46,0,0,0,6.58-.83c21.17-1.91,29.76-13.41,36.64-30.91,0,0,3.73-14.17,14-14.17s14,14.17,14,14.17c6.88,17.51,15.48,29,36.64,30.91a27.44,27.44,0,0,0,6.58.83h55c15.18,0,27.48-17.8,27.48-33V85.09A27.49,27.49,0,0,1,315.14,112.57Z"/><path class="cls-8" d="M385.6,45.09H357.66v65H385.6a11,11,0,0,0,11-11V56.09A11,11,0,0,0,385.6,45.09Z"/><path class="cls-9" d="M390.41,46.21v42.4a11,11,0,0,1-11,11H357.66v10.53H385.6a11,11,0,0,0,11-11V56.09A11,11,0,0,0,390.41,46.21Z"/><path class="cls-8" d="M20.13,45.09H48.07v65H20.13a11,11,0,0,1-11-11V56.09A11,11,0,0,1,20.13,45.09Z"/><path class="cls-9" d="M40.5,45.09s2,41.89-1.35,48.57C33.65,104.5,10.93,103.06,9.9,103H9.83a11,11,0,0,0,10.3,7.2H48.07v-65Z"/></g></g></g></svg>