<?xml version="1.0" encoding="iso-8859-1"?>
<!-- Generator: Adobe Illustrator 19.0.0, SVG Export Plug-In . SVG Version: 6.00 Build 0)  -->
<svg version="1.1" id="Capa_1" xmlns="http://www.w3.org/2000/svg" xmlns:xlink="http://www.w3.org/1999/xlink" x="0px" y="0px"
	 viewBox="0 0 512 512" style="enable-background:new 0 0 512 512;" xml:space="preserve">
<path style="fill:#303F9F;" d="M465.925,69.975H370.1L339.197,8.172C336.694,3.164,331.575,0,325.975,0h-139.95
	c-5.6,0-10.718,3.164-13.223,8.172L141.9,69.975H46.075c-8.164,0-14.783,6.619-14.783,14.783v244.912
	c0,8.164,6.619,14.783,14.783,14.783h419.85c8.164,0,14.783-6.619,14.783-14.783V84.758
	C480.708,76.594,474.089,69.975,465.925,69.975z"/>
<path style="fill:#5C6BC0;" d="M255.105,0h-69.08c-5.6,0-10.718,3.164-13.223,8.172L141.9,69.975H46.075
	c-8.164,0-14.783,6.619-14.783,14.783v244.912c0,8.164,6.619,14.783,14.783,14.783h209.03L255.105,0L255.105,0z"/>
<path style="fill:#00ECFF;" d="M256,104.962c-46.735,0-84.758,38.022-84.758,84.758s38.023,84.758,84.758,84.758
	c46.736,0,84.758-38.022,84.758-84.758S302.736,104.962,256,104.962z"/>
<path style="fill:#97FAFF;" d="M255.105,104.985c-46.323,0.484-83.864,38.3-83.864,84.736s37.54,84.252,83.864,84.736V104.985z"/>
<path style="fill:#FB7A0D;" d="M143.307,512H87.469c-8.164,0-14.783-6.619-14.783-14.783s6.619-14.783,14.783-14.783h55.838
	c3.868,0,7.015-3.147,7.015-7.015c0-3.224-2.185-6.023-5.314-6.805l-37.072-9.268c-9.358-2.339-15.892-10.709-15.892-20.354
	c0-9.646,6.535-18.016,15.892-20.355l37.073-9.267c3.128-0.783,5.313-3.582,5.313-6.806c0-3.868-3.147-7.014-7.015-7.014H87.469
	c-8.164,0-14.783-6.619-14.783-14.783s6.619-14.783,14.783-14.783h55.838c20.172,0,36.582,16.41,36.582,36.581
	c0,16.817-11.394,31.411-27.709,35.49l-3.757,0.939l3.756,0.939c16.315,4.079,27.709,18.672,27.709,35.489
	C179.888,495.589,163.478,512,143.307,512z"/>
<path style="fill:#E54801;" d="M265.705,512h-19.409c-24.205,0-43.897-19.692-43.897-43.897v-58.227
	c0-24.205,19.692-43.897,43.897-43.897h48.522c8.164,0,14.783,6.619,14.783,14.783s-6.619,14.783-14.783,14.783h-48.522
	c-7.902,0-14.33,6.428-14.33,14.33v14.33h33.739c24.205,0,43.897,19.692,43.897,43.897C309.602,492.308,289.909,512,265.705,512z
	 M231.965,453.773v14.33c0,7.902,6.428,14.33,14.33,14.33h19.409c7.902,0,14.33-6.428,14.33-14.33c0-7.902-6.428-14.33-14.33-14.33
	H231.965z"/>
<path style="fill:#FB7A0D;" d="M255.105,482.433h-8.81c-7.902,0-14.33-6.428-14.33-14.33v-14.33h23.14v-29.567h-23.14v-14.33
	c0-7.902,6.428-14.33,14.33-14.33h8.81v-29.567h-8.81c-24.205,0-43.897,19.692-43.897,43.897v58.227
	c0,24.205,19.692,43.897,43.897,43.897h8.81V482.433z"/>
<path style="fill:#E54801;" d="M395.418,512h-19.409c-24.205,0-43.897-19.692-43.897-43.897v-58.227
	c0-24.205,19.692-43.897,43.897-43.897h19.409c24.205,0,43.897,19.692,43.897,43.897v58.227
	C439.315,492.308,419.623,512,395.418,512z M376.009,395.546c-7.902,0-14.33,6.428-14.33,14.33v58.227
	c0,7.902,6.428,14.33,14.33,14.33h19.409c7.902,0,14.33-6.428,14.33-14.33v-58.227c0-7.902-6.428-14.33-14.33-14.33H376.009z"/>
<g>
</g>
<g>
</g>
<g>
</g>
<g>
</g>
<g>
</g>
<g>
</g>
<g>
</g>
<g>
</g>
<g>
</g>
<g>
</g>
<g>
</g>
<g>
</g>
<g>
</g>
<g>
</g>
<g>
</g>
</svg>
